# xmcd CD database file
#
# Track frame offsets:
#	150
#	12003
#	28826
#	44116
#	65374
#	82124
#	110408
#	127215
#	146916
#	159643
#	181854
#	200551
#	216423
#	244939
#	260643
#	279542
#	288917
#	301234
#	316573
#
# Disc length: 4719 seconds
#
# Revision: 1
# Processed by: cddbd v1.5.2PL0 Copyright (c) Steve Scherf et al.
# Submitted via: CDex 1.51
#
DISCID=25126d13
DTITLE=The Lavens - Live at the Cove
DYEAR=2007
DGENRE=Country
TTITLE0=Can't Concentrate
TTITLE1=Perfect World
TTITLE2=Andy and Maria
TTITLE3=Sometimes
TTITLE4=Fifteen Dollars
TTITLE5=Love me like a Man
TTITLE6=Runaway Girl
TTITLE7=Into the Mystic
TTITLE8=Train Song
TTITLE9=Folsom Prison
TTITLE10=Spirit Bird
TTITLE11=We Don't Sound Like Us
TTITLE12=Its a Given
TTITLE13=Devil Woman
TTITLE14=Truck Song
TTITLE15=How about you
TTITLE16=Money in My Pocket
TTITLE17=Wings on My Back
TTITLE18=Faith
EXTD=YEAR: 2007
EXTT0=
EXTT1=
EXTT2=
EXTT3=
EXTT4=
EXTT5=
EXTT6=
EXTT7=
EXTT8=
EXTT9=
EXTT10=
EXTT11=
EXTT12=
EXTT13=
EXTT14=
EXTT15=
EXTT16=
EXTT17=
EXTT18=
PLAYORDER=
